# xmcd
#
# Track frame offsets: 
#        150
#        16650
#        26919
#        39748
#        62215
#        82063
#        96318
#        123475
#        139793
#        155141
#        167895
#
# Disc length: 2556 seconds
#
# Revision: 1
# Processed by: cddbd v1.5.2PL0 Copyright (c) Steve Scherf et al.
# Submitted via: ExactAudioCopyFreeDBPlugin 1.0
#
DISCID=9a09fa0b
DTITLE=Stevie LaRocca - Insight, Outta' Sight
DYEAR=1997
DGENRE=Blues
TTITLE0=The Big Easy
TTITLE1=I'm Not Coming Home Tonight
TTITLE2=Can't Love Yourself (Radio Edit)
TTITLE3=Somewhere There's Someone
TTITLE4=In The Morning
TTITLE5=Stevie Shuffle
TTITLE6=Just A Few Minutes
TTITLE7=Passing Trains
TTITLE8=Brother Hood Of Man
TTITLE9=OPG
TTITLE10=Can't Love Yourself (Album Version)
EXTD=
EXTT0=
EXTT1=
EXTT2=
EXTT3=
EXTT4=
EXTT5=
EXTT6=
EXTT7=
EXTT8=
EXTT9=
EXTT10=
PLAYORDER=
